<svg width="24" height="24" viewBox="0 0 24 24" fill="none" xmlns="http://www.w3.org/2000/svg">
<path fill-rule="evenodd" clip-rule="evenodd" d="M9.70697 2.70698C9.89446 2.51948 9.9998 2.26518 9.9998 2.00001C9.9998 1.44784 9.55217 1.00021 9 1.00021C8.73484 1.00021 8.48053 1.10555 8.29289 1.29291L4.29289 5.29291C3.90237 5.68343 3.90237 6.3166 4.29289 6.70712L8.29303 10.707C8.48053 10.8945 8.73483 10.9998 9 10.9998C9.55217 10.9998 9.9998 10.5522 9.9998 10C9.9998 9.73485 9.89446 9.48055 9.7071 9.29291L7.41403 6.99983L15 7C17.4853 7 19.2426 8.75736 19.2426 8.75736C21 10.5147 21 13 21 13C21.0002 13.5522 21.4478 13.9998 22 13.9998C22.5522 13.9998 22.9998 13.5522 23 13C23 9.68629 20.6569 7.34315 20.6569 7.34315C18.3137 5 15 5 15 5L7.41414 5L9.70697 2.70698ZM1 11C1 14.3137 3.34315 16.6569 3.34315 16.6569C5.68629 19 9 19 9 19L16.5859 19L14.293 21.293C14.1055 21.4805 14.0002 21.7348 14.0002 22C14.0002 22.5522 14.4478 22.9998 15 22.9998C15.2652 22.9998 15.5195 22.8945 15.7071 22.7071L19.7071 18.7071C20.0976 18.3166 20.0976 17.6834 19.7071 17.2929L15.707 13.293C15.5195 13.1055 15.2652 13.0002 15 13.0002C14.4478 13.0002 14.0002 13.4478 14.0002 14C14.0002 14.2651 14.1055 14.5195 14.2929 14.7071L16.586 17.0002L9 17C6.51472 17 4.75736 15.2426 4.75736 15.2426C3 13.4853 3 11 3 11C2.9998 10.4478 2.55217 10.0002 2 10.0002C1.44783 10.0002 1.0002 10.4478 1 11Z" fill="white"/>
</svg>
