<svg width="24" height="24" viewBox="0 0 24 24" fill="none" xmlns="http://www.w3.org/2000/svg">
<path fill-rule="evenodd" clip-rule="evenodd" d="M23 12C23 18.0751 18.0751 23 12 23C5.92487 23 1 18.0751 1 12C1 5.92487 5.92487 1 12 1C18.0751 1 23 5.92487 23 12ZM10.5791 5.46053C11.0762 5 11.9999 5 11.9999 5C14 5 14 7.15898 14 7.15898L12.9998 14.3751C12.9998 14.7202 12.5521 15 11.9999 15C11.4477 15 11.0001 14.7202 10.9999 14.3751L10 7.15898C9.9999 5.99714 10.5791 5.46053 10.5791 5.46053ZM13.5 18.5C13.5 19.3284 12.8284 20 12 20C11.1716 20 10.5 19.3284 10.5 18.5C10.5 17.6716 11.1716 17 12 17C12.8284 17 13.5 17.6716 13.5 18.5Z" fill="white"/>
</svg>
