<svg width="24" height="24" viewBox="0 0 24 24" fill="none" xmlns="http://www.w3.org/2000/svg">
<path fill-rule="evenodd" clip-rule="evenodd" d="M6 15.6C4 13.8 4 8.4 4 8.4C4 3.09619 5.92938 1.26527 5.92938 1.26527C5.97594 1.22109 6.02771 1.18338 6.08274 1.15036L6.4855 0.9087C7.15203 0.508785 8 0.988898 8 1.76619V22C8 22.5523 7.55228 23 7 23C6.44772 23 6 22.5523 6 22V15.6ZM15 7V2.5C14.9998 1.94782 14.5522 1.5002 14 1.5002C13.4478 1.5002 13.0002 1.94782 13.0002 2.5L13 7C13 8.92777 13.9179 10.3047 13.9179 10.3047C14.7411 11.5394 16 11.8748 16 11.8748V22C16 22.5523 16.4477 23 17 23C17.5523 23 18 22.5523 18 22V11.8956C19.2757 11.6102 20.0565 10.5449 20.0565 10.5449C21 9.25786 21 7 21 7V2.5C20.9998 1.94782 20.5522 1.5002 20 1.5002C19.4478 1.5002 19.0002 1.94782 19.0002 2.5L19 7L18 7V2C18 1.44772 17.5523 1 17 1C16.4477 1 16 1.44772 16 2V7L15 7Z" fill="white"/>
</svg>
