<svg width="24" height="24" viewBox="0 0 24 24" fill="none" xmlns="http://www.w3.org/2000/svg">
<path d="M12.1832 2.00488C14.0607 2.10011 15.5543 3.65246 15.5543 5.55371L15.5494 5.73633C15.4716 7.27118 14.4195 8.54842 12.9996 8.96387V10.7236H16.0465C18.2556 10.7236 20.0465 12.5145 20.0465 14.7236V15.0361C21.5221 15.4681 22.6001 16.8311 22.6002 18.4463L22.5953 18.6289C22.5002 20.5066 20.9477 21.9999 19.0465 22L18.8639 21.9951C17.0466 21.9032 15.5897 20.4461 15.4976 18.6289L15.4928 18.4463C15.4929 16.8311 16.5709 15.4681 18.0465 15.0361V14.7236C18.0465 13.6191 17.151 12.7236 16.0465 12.7236H7.95365C6.84908 12.7236 5.95365 13.6191 5.95364 14.7236V15.0361C7.4293 15.4681 8.50725 16.8311 8.50737 18.4463L8.50248 18.6289C8.40739 20.5066 6.85488 21.9999 4.95363 22L4.77102 21.9951C2.9538 21.9031 1.49682 20.4461 1.40479 18.6289L1.3999 18.4463C1.40002 16.8311 2.47807 15.4682 3.95363 15.0361V14.7236C3.95364 12.5145 5.74451 10.7236 7.95365 10.7236H10.9996V8.96387C9.58032 8.54813 8.52952 7.27075 8.4517 5.73633L8.44682 5.55371C8.44682 3.5911 10.038 2 12.0006 2L12.1832 2.00488ZM4.95363 16.8926C4.09579 16.8926 3.40005 17.5884 3.39991 18.4463C3.39996 19.3043 4.09574 19.9999 4.95363 20C5.81151 19.9999 6.50731 19.3043 6.50735 18.4463C6.50722 17.5884 5.81146 16.8927 4.95363 16.8926ZM19.0465 16.8926C18.1886 16.8926 17.4929 17.5883 17.4928 18.4463C17.4928 19.3043 18.1886 20 19.0465 20C19.9044 19.9999 20.6002 19.3043 20.6002 18.4463C20.6001 17.5884 19.9043 16.8927 19.0465 16.8926ZM12.0006 4C11.1426 4 10.4468 4.69563 10.4468 5.55371C10.447 6.41164 11.1427 7.10742 12.0006 7.10742C12.8583 7.10725 13.5541 6.41153 13.5543 5.55371C13.5543 4.69574 12.8584 4.00018 12.0006 4Z" fill="white"/>
</svg>
